<?xml version="1.0" encoding="UTF-8" standalone="no"?>
<!DOCTYPE svg PUBLIC "-//W3C//DTD SVG 1.1//EN"
 "http://www.w3.org/Graphics/SVG/1.1/DTD/svg11.dtd">
<!-- Generated by graphviz version 15.0.0 (20260523.1842)
 -->
<!-- Pages: 1 -->
<svg width="770pt" height="483pt"
 viewBox="0.00 0.00 770.00 483.00" xmlns="http://www.w3.org/2000/svg" xmlns:xlink="http://www.w3.org/1999/xlink">
<g id="graph0" class="graph" transform="scale(1 1) rotate(0) translate(28.8 454.69)">
<polygon fill="white" stroke="none" points="-28.8,28.8 -28.8,-454.69 741.17,-454.69 741.17,28.8 -28.8,28.8"/>
<text xml:space="preserve" text-anchor="middle" x="356.18" y="-387.69" font-family="Helvetica,sans-Serif" font-size="36.00">codecrafters_redis</text>
<!-- codecrafters_redis -->
<g id="node1" class="node">
<title>codecrafters_redis</title>
<polygon fill="#5397c8" stroke="black" points="0,-52.66 0,-94.16 124,-94.16 124,-52.66 0,-52.66"/>
<text xml:space="preserve" text-anchor="middle" x="62" y="-80.66" font-family="monospace" font-size="10.00">crate</text>
<polyline fill="none" stroke="black" points="0,-73.41 124,-73.41"/>
<text xml:space="preserve" text-anchor="middle" x="62" y="-59.91" font-family="monospace" font-size="10.00">codecrafters_redis</text>
</g>
<!-- codecrafters_redis::networking -->
<g id="node3" class="node">
<title>codecrafters_redis::networking</title>
<polygon fill="#f8c04c" stroke="black" points="317.39,-102.07 317.39,-143.57 417.39,-143.57 417.39,-102.07 317.39,-102.07"/>
<text xml:space="preserve" text-anchor="middle" x="367.39" y="-130.07" font-family="monospace" font-size="10.00">pub(crate) mod</text>
<polyline fill="none" stroke="black" points="317.39,-122.82 417.39,-122.82"/>
<text xml:space="preserve" text-anchor="middle" x="367.39" y="-109.32" font-family="monospace" font-size="10.00">networking</text>
</g>
<!-- codecrafters_redis&#45;&gt;codecrafters_redis::networking -->
<g id="edge1" class="edge">
<title>codecrafters_redis&#45;&gt;codecrafters_redis::networking</title>
<path fill="none" stroke="#7f7f7f" stroke-dasharray="5,2" d="M124.17,-83.47C177.13,-92.04 252.84,-104.29 305.68,-112.84"/>
<polygon fill="#7f7f7f" stroke="#7f7f7f" points="305,-116.27 315.43,-114.41 306.11,-109.36 305,-116.27"/>
<text xml:space="preserve" text-anchor="middle" x="202.92" y="-101.4" font-family="monospace" font-size="10.00">uses</text>
</g>
<!-- codecrafters_redis::resp -->
<g id="node4" class="node">
<title>codecrafters_redis::resp</title>
<polygon fill="#f8c04c" stroke="black" points="118.06,-339.14 118.06,-380.64 218.06,-380.64 218.06,-339.14 118.06,-339.14"/>
<text xml:space="preserve" text-anchor="middle" x="168.06" y="-367.14" font-family="monospace" font-size="10.00">pub(crate) mod</text>
<polyline fill="none" stroke="black" points="118.06,-359.89 218.06,-359.89"/>
<text xml:space="preserve" text-anchor="middle" x="168.06" y="-346.39" font-family="monospace" font-size="10.00">resp</text>
</g>
<!-- codecrafters_redis&#45;&gt;codecrafters_redis::resp -->
<g id="edge2" class="edge">
<title>codecrafters_redis&#45;&gt;codecrafters_redis::resp</title>
<path fill="none" stroke="#7f7f7f" stroke-dasharray="5,2" d="M69.8,-94.47C88.22,-144.25 134.54,-269.34 156.35,-328.26"/>
<polygon fill="#7f7f7f" stroke="#7f7f7f" points="152.97,-329.21 159.72,-337.37 159.53,-326.78 152.97,-329.21"/>
<text xml:space="preserve" text-anchor="middle" x="101.07" y="-214.62" font-family="monospace" font-size="10.00">uses</text>
</g>
<!-- codecrafters_redis::command -->
<g id="node2" class="node">
<title>codecrafters_redis::command</title>
<polygon fill="#f8c04c" stroke="black" points="612.37,-0.5 612.37,-42 712.37,-42 712.37,-0.5 612.37,-0.5"/>
<text xml:space="preserve" text-anchor="middle" x="662.37" y="-28.5" font-family="monospace" font-size="10.00">pub(crate) mod</text>
<polyline fill="none" stroke="black" points="612.37,-21.25 712.37,-21.25"/>
<text xml:space="preserve" text-anchor="middle" x="662.37" y="-7.75" font-family="monospace" font-size="10.00">command</text>
</g>
<!-- codecrafters_redis::networking&#45;&gt;codecrafters_redis::command -->
<g id="edge3" class="edge">
<title>codecrafters_redis::networking&#45;&gt;codecrafters_redis::command</title>
<path fill="none" stroke="#7f7f7f" stroke-dasharray="5,2" d="M417.76,-105.48C468.56,-87.98 547.04,-60.96 601.34,-42.26"/>
<polygon fill="#7f7f7f" stroke="#7f7f7f" points="602.45,-45.58 610.77,-39.02 600.18,-38.96 602.45,-45.58"/>
<text xml:space="preserve" text-anchor="middle" x="497.55" y="-77.12" font-family="monospace" font-size="10.00">uses</text>
</g>
<!-- codecrafters_redis::networking&#45;&gt;codecrafters_redis::resp -->
<g id="edge4" class="edge">
<title>codecrafters_redis::networking&#45;&gt;codecrafters_redis::resp</title>
<path fill="none" stroke="#7f7f7f" stroke-dasharray="5,2" d="M349.7,-143.86C314.16,-186.12 234.01,-281.44 193.1,-330.1"/>
<polygon fill="#7f7f7f" stroke="#7f7f7f" points="190.44,-327.83 186.68,-337.74 195.8,-332.34 190.44,-327.83"/>
<text xml:space="preserve" text-anchor="middle" x="259.4" y="-240.23" font-family="monospace" font-size="10.00">uses</text>
</g>
</g>
</svg>
